# xmcd CD database file
#
# Track frame offsets:
#	150
#	14051
#	30502
#	41088
#	52398
#	69155
#	82276
#	92841
#
# Disc length: 1635 seconds
#
# Revision: 0
# Processed by: cddbd v1.5.1PL0 Copyright (c) Steve Scherf et al.
# Submitted via: CDex 1.51
#
DISCID=6e066108
DTITLE=Felt - Train above the city
DYEAR=1988
DGENRE=Jazz
TTITLE0=train above the city
TTITLE1=on weegee's sidewalk
TTITLE2=run chico run
TTITLE3=press softly on the brakes holly
TTITLE4=spectral morning
TTITLE5=teargardens
TTITLE6=book of swords
TTITLE7=seahorses on broadway
EXTD=YEAR: 1988
EXTT0=
EXTT1=
EXTT2=
EXTT3=
EXTT4=
EXTT5=
EXTT6=
EXTT7=
PLAYORDER=
